<svg viewBox="0 0 300 209.9166" width="5000px" height="3498.6099243164067px" xmlns="http://www.w3.org/2000/svg" xmlns:xlink="http://www.w3.org/1999/xlink" preserveAspectRatio="none"><defs></defs><style>.a6izo4zJpcolor {fill:#383838;fill-opacity:1;}.aD6z1nYkhcolor {fill:#747474;fill-opacity:1;}.aLgOaV3zRcolors-0 {fill:#414141;fill-opacity:1;}</style><g opacity="1" transform="rotate(0 12.982100000000003 0)">
<svg width="274.0358" height="182.0586" x="12.982100000000003" y="0" version="1.1" preserveAspectRatio="none" viewBox="4.200999736785889 21.96699905395508 89.02999114990234 59.14799880981445">
  <g transform="matrix(1 0 0 1 0 0)" class="aLgOaV3zRcolors-0"><g><circle cx="46.796" cy="22.734" r="0.767"></circle><circle cx="46.796" cy="26.58" r="0.886"></circle><circle cx="46.796" cy="30.425" r="1.004"></circle><circle cx="46.797" cy="34.271" r="1.12"></circle><circle cx="46.796" cy="38.079" r="1.24"></circle><circle cx="46.797" cy="41.963" r="1.356"></circle><circle cx="46.797" cy="45.809" r="1.476"></circle><circle cx="43.004" cy="22.734" r="0.767"></circle><circle cx="43.004" cy="26.58" r="0.886"></circle><circle cx="43.004" cy="30.425" r="1.004"></circle><circle cx="43.004" cy="34.271" r="1.12"></circle><circle cx="43.004" cy="38.079" r="1.24"></circle><circle cx="43.004" cy="41.963" r="1.356"></circle><circle cx="43.004" cy="80.348" r="0.767"></circle><circle cx="43.004" cy="76.57" r="0.886"></circle><circle cx="43.004" cy="72.723" r="1.003"></circle><circle cx="43.004" cy="68.876" r="1.121"></circle><circle cx="43.004" cy="65.031" r="1.239"></circle><circle cx="43.004" cy="61.186" r="1.356"></circle><circle cx="46.796" cy="80.348" r="0.767"></circle><circle cx="46.796" cy="76.57" r="0.886"></circle><circle cx="46.796" cy="72.723" r="1.003"></circle><circle cx="46.797" cy="68.876" r="1.121"></circle><circle cx="46.796" cy="65.031" r="1.239"></circle><circle cx="46.797" cy="61.186" r="1.356"></circle><circle cx="43.004" cy="45.809" r="1.476"></circle><circle cx="46.797" cy="49.447" r="1.476"></circle><circle cx="43.004" cy="49.447" r="1.476"></circle><circle cx="46.797" cy="53.083" r="1.475"></circle><circle cx="43.004" cy="53.083" r="1.475"></circle><circle cx="46.797" cy="57.024" r="1.475"></circle><circle cx="50.594" cy="22.734" r="0.767"></circle><circle cx="50.591" cy="26.58" r="0.886"></circle><circle cx="50.586" cy="30.425" r="1.004"></circle><circle cx="50.582" cy="34.271" r="1.12"></circle><circle cx="50.578" cy="38.079" r="1.24"></circle><circle cx="50.573" cy="41.963" r="1.356"></circle><circle cx="50.57" cy="45.809" r="1.476"></circle><circle cx="50.594" cy="80.348" r="0.767"></circle><circle cx="50.591" cy="76.57" r="0.886"></circle><circle cx="50.586" cy="72.723" r="1.003"></circle><circle cx="50.582" cy="68.876" r="1.121"></circle><circle cx="50.578" cy="65.031" r="1.239"></circle><circle cx="50.573" cy="61.186" r="1.356"></circle><circle cx="50.57" cy="49.447" r="1.476"></circle><circle cx="50.57" cy="53.083" r="1.475"></circle><circle cx="50.57" cy="57.024" r="1.475"></circle><circle cx="54.53" cy="76.57" r="0.886"></circle><circle cx="54.525" cy="72.723" r="1.003"></circle><circle cx="54.522" cy="68.876" r="1.121"></circle><circle cx="54.52" cy="65.031" r="1.239"></circle><circle cx="58.309" cy="49.571" r="1.24"></circle><circle cx="62.145" cy="49.571" r="1.144"></circle><circle cx="65.983" cy="49.571" r="1.049"></circle><circle cx="69.821" cy="49.571" r="0.954"></circle><circle cx="73.659" cy="49.571" r="0.859"></circle><circle cx="77.497" cy="49.571" r="0.763"></circle><circle cx="81.334" cy="49.571" r="0.668"></circle><circle cx="85.172" cy="49.571" r="0.573"></circle><circle cx="89.01" cy="49.571" r="0.479"></circle><circle cx="92.848" cy="49.571" r="0.383"></circle><path d="M35.535,52.165c0.684,0,1.239,0.553,1.239,1.238s-0.556,1.24-1.239,1.24s-1.238-0.555-1.238-1.24   C34.297,52.722,34.852,52.165,35.535,52.165z"></path><circle cx="31.698" cy="53.403" r="1.144"></circle><circle cx="27.713" cy="53.403" r="0.764"></circle><circle cx="23.876" cy="53.403" r="0.668"></circle><circle cx="20.038" cy="53.403" r="0.573"></circle><circle cx="16.2" cy="53.403" r="0.479"></circle><circle cx="12.363" cy="53.403" r="0.383"></circle><circle cx="58.356" cy="57.149" r="1.144"></circle><circle cx="62.194" cy="57.149" r="1.049"></circle><circle cx="66.032" cy="57.149" r="0.953"></circle><circle cx="69.87" cy="57.149" r="0.858"></circle><circle cx="73.707" cy="57.149" r="0.763"></circle><circle cx="77.545" cy="57.149" r="0.669"></circle><circle cx="81.383" cy="57.149" r="0.572"></circle><circle cx="85.221" cy="57.149" r="0.479"></circle><circle cx="89.058" cy="57.149" r="0.383"></circle><circle cx="58.356" cy="60.788" r="1.144"></circle><circle cx="62.194" cy="60.788" r="1.049"></circle><circle cx="66.032" cy="60.788" r="0.953"></circle><path d="M70.729,60.788c0,0.473-0.384,0.857-0.859,0.857c-0.474,0-0.857-0.385-0.857-0.857c0-0.477,0.384-0.859,0.857-0.859   C70.345,59.929,70.729,60.312,70.729,60.788z"></path><circle cx="73.707" cy="60.788" r="0.763"></circle><circle cx="77.545" cy="60.788" r="0.669"></circle><circle cx="81.383" cy="60.788" r="0.572"></circle><circle cx="85.221" cy="60.788" r="0.479"></circle><circle cx="89.058" cy="60.788" r="0.383"></circle><circle cx="58.449" cy="65.032" r="0.668"></circle><circle cx="62.286" cy="65.032" r="0.573"></circle><circle cx="66.124" cy="65.032" r="0.477"></circle><circle cx="69.963" cy="65.031" r="0.384"></circle><circle cx="58.449" cy="68.972" r="0.668"></circle><circle cx="62.286" cy="68.972" r="0.573"></circle><circle cx="66.124" cy="68.972" r="0.477"></circle><circle cx="69.963" cy="68.973" r="0.382"></circle><circle cx="58.449" cy="72.761" r="0.668"></circle><circle cx="62.286" cy="72.761" r="0.573"></circle><circle cx="66.124" cy="72.761" r="0.477"></circle><circle cx="69.963" cy="72.762" r="0.382"></circle><path d="M59.117,76.548c0,0.369-0.3,0.67-0.669,0.67s-0.668-0.301-0.668-0.67c0-0.367,0.299-0.666,0.668-0.666   S59.117,76.181,59.117,76.548z"></path><path d="M62.858,76.548c0,0.318-0.255,0.576-0.572,0.576c-0.316,0-0.573-0.258-0.573-0.576c0-0.314,0.257-0.57,0.573-0.57   C62.604,75.978,62.858,76.233,62.858,76.548z"></path><path d="M66.601,76.548c0,0.264-0.212,0.48-0.478,0.48c-0.263,0-0.477-0.217-0.477-0.48c0-0.262,0.214-0.477,0.477-0.477   C66.389,76.071,66.601,76.286,66.601,76.548z"></path><circle cx="39.236" cy="80.348" r="0.767"></circle><circle cx="35.301" cy="80.349" r="0.573"></circle><circle cx="31.464" cy="80.349" r="0.478"></circle><circle cx="27.627" cy="80.349" r="0.383"></circle><circle cx="58.309" cy="53.209" r="1.239"></circle><circle cx="62.145" cy="53.21" r="1.144"></circle><circle cx="65.983" cy="53.21" r="1.049"></circle><circle cx="69.821" cy="53.21" r="0.954"></circle><circle cx="73.659" cy="53.21" r="0.859"></circle><circle cx="77.497" cy="53.21" r="0.763"></circle><circle cx="81.334" cy="53.21" r="0.668"></circle><circle cx="85.172" cy="53.21" r="0.573"></circle><circle cx="89.01" cy="53.21" r="0.479"></circle><circle cx="54.514" cy="61.186" r="1.356"></circle><circle cx="54.511" cy="49.447" r="1.476"></circle><circle cx="58.309" cy="45.783" r="1.239"></circle><circle cx="62.145" cy="45.782" r="1.144"></circle><circle cx="65.983" cy="45.782" r="1.049"></circle><circle cx="69.821" cy="45.782" r="0.954"></circle><circle cx="73.659" cy="45.782" r="0.859"></circle><circle cx="77.497" cy="45.782" r="0.763"></circle><path d="M82.002,45.782c0,0.369-0.299,0.67-0.667,0.67c-0.369,0-0.669-0.301-0.669-0.67c0-0.367,0.3-0.668,0.669-0.668   C81.703,45.114,82.002,45.415,82.002,45.782z"></path><circle cx="85.172" cy="45.782" r="0.573"></circle><circle cx="89.01" cy="45.782" r="0.479"></circle><circle cx="92.848" cy="45.782" r="0.383"></circle><circle cx="35.441" cy="45.632" r="0.954"></circle><circle cx="31.604" cy="45.632" r="0.858"></circle><circle cx="27.766" cy="45.632" r="0.764"></circle><circle cx="23.928" cy="45.632" r="0.668"></circle><circle cx="20.09" cy="45.632" r="0.573"></circle><circle cx="16.252" cy="45.632" r="0.478"></circle><circle cx="12.414" cy="45.631" r="0.382"></circle><circle cx="35.368" cy="30.323" r="0.574"></circle><circle cx="31.529" cy="30.323" r="0.479"></circle><circle cx="27.692" cy="30.323" r="0.383"></circle><circle cx="35.368" cy="34.265" r="0.689"></circle><circle cx="31.529" cy="34.265" r="0.479"></circle><circle cx="27.692" cy="34.265" r="0.383"></circle><circle cx="35.463" cy="26.687" r="0.478"></circle><path d="M54.52,43.233c-0.686,0-1.24-0.555-1.24-1.24c0-0.682,0.555-1.238,1.24-1.238c0.683,0,1.237,0.557,1.237,1.238   C55.757,42.679,55.202,43.233,54.52,43.233z"></path><circle cx="58.356" cy="41.993" r="1.144"></circle><circle cx="62.194" cy="41.993" r="1.049"></circle><circle cx="54.52" cy="38.079" r="1.24"></circle><circle cx="58.356" cy="38.079" r="1.144"></circle><circle cx="62.194" cy="38.079" r="1.049"></circle><circle cx="66.032" cy="41.993" r="0.953"></circle><path d="M70.729,41.993c0,0.473-0.384,0.861-0.859,0.861c-0.474,0-0.857-0.389-0.857-0.861s0.384-0.859,0.857-0.859   C70.345,41.134,70.729,41.521,70.729,41.993z"></path><circle cx="54.464" cy="34.265" r="1.049"></circle><circle cx="58.302" cy="34.265" r="0.954"></circle><circle cx="62.14" cy="34.265" r="0.859"></circle><circle cx="73.707" cy="41.993" r="0.763"></circle><circle cx="77.545" cy="41.993" r="0.669"></circle><circle cx="66.027" cy="38.079" r="0.667"></circle><circle cx="81.383" cy="41.993" r="0.572"></circle><circle cx="69.864" cy="38.079" r="0.573"></circle><circle cx="85.221" cy="41.993" r="0.479"></circle><circle cx="89.058" cy="41.995" r="0.383"></circle><circle cx="73.6" cy="38.079" r="0.383"></circle><circle cx="35.251" cy="38.079" r="1.144"></circle><circle cx="31.413" cy="38.079" r="1.049"></circle><circle cx="27.58" cy="38.079" r="0.668"></circle><circle cx="23.743" cy="38.079" r="0.573"></circle><circle cx="20.008" cy="38.079" r="0.383"></circle><circle cx="35.251" cy="42.019" r="1.144"></circle><circle cx="31.413" cy="42.019" r="1.049"></circle><circle cx="27.58" cy="42.019" r="0.668"></circle><circle cx="23.743" cy="42.019" r="0.573"></circle><circle cx="20.008" cy="42.021" r="0.383"></circle><circle cx="54.616" cy="30.349" r="1.048"></circle><path d="M59.117,30.349c0,0.369-0.3,0.67-0.669,0.67s-0.668-0.301-0.668-0.67c0-0.367,0.299-0.668,0.668-0.668   S59.117,29.981,59.117,30.349z"></path><circle cx="62.286" cy="30.349" r="0.573"></circle><circle cx="66.021" cy="30.35" r="0.384"></circle><circle cx="54.405" cy="26.712" r="0.573"></circle><circle cx="58.141" cy="26.712" r="0.383"></circle><circle cx="54.511" cy="45.658" r="1.476"></circle><circle cx="54.511" cy="53.083" r="1.475"></circle><circle cx="54.511" cy="57.024" r="1.475"></circle><circle cx="43.004" cy="57.024" r="1.475"></circle><circle cx="39.237" cy="26.58" r="0.886"></circle><circle cx="39.237" cy="30.425" r="1.004"></circle><circle cx="35.368" cy="76.399" r="0.574"></circle><circle cx="31.529" cy="76.399" r="0.479"></circle><circle cx="27.692" cy="76.397" r="0.383"></circle><circle cx="39.237" cy="76.5" r="1.003"></circle><circle cx="39.237" cy="34.271" r="1.12"></circle><circle cx="39.237" cy="38.079" r="1.24"></circle><path d="M34.107,72.329c0-0.629,0.512-1.143,1.143-1.143c0.633,0,1.146,0.514,1.146,1.143c0,0.635-0.513,1.146-1.146,1.146   C34.619,73.476,34.107,72.964,34.107,72.329z"></path><path d="M30.364,72.329c0-0.576,0.47-1.047,1.049-1.047c0.58,0,1.049,0.471,1.049,1.047c0,0.584-0.469,1.053-1.049,1.053   C30.834,73.382,30.364,72.913,30.364,72.329z"></path><path d="M26.912,72.329c0-0.365,0.301-0.666,0.669-0.666c0.369,0,0.667,0.301,0.667,0.666c0,0.371-0.298,0.67-0.667,0.67   C27.213,72.999,26.912,72.7,26.912,72.329z"></path><path d="M23.17,72.329c0-0.314,0.257-0.57,0.573-0.57s0.572,0.256,0.572,0.57c0,0.318-0.256,0.574-0.572,0.574   S23.17,72.647,23.17,72.329z"></path><path d="M20.008,71.948c0.212,0,0.384,0.17,0.384,0.381c0,0.215-0.172,0.385-0.384,0.385c-0.21,0-0.383-0.17-0.383-0.385   C19.625,72.118,19.798,71.948,20.008,71.948z"></path><path d="M39.237,71.093c-0.687,0-1.24,0.553-1.24,1.236c0,0.688,0.554,1.24,1.24,1.24c0.684,0,1.238-0.553,1.238-1.24   C40.476,71.646,39.921,71.093,39.237,71.093z"></path><circle cx="39.237" cy="41.963" r="1.356"></circle><circle cx="35.251" cy="49.446" r="1.144"></circle><circle cx="31.413" cy="49.446" r="1.049"></circle><circle cx="27.58" cy="49.446" r="0.668"></circle><circle cx="23.743" cy="49.446" r="0.573"></circle><circle cx="20.008" cy="49.446" r="0.383"></circle><path d="M39.237,48.032c-0.751,0-1.357,0.609-1.357,1.359c0,0.746,0.606,1.355,1.357,1.355c0.748,0,1.356-0.609,1.356-1.355   C40.594,48.642,39.985,48.032,39.237,48.032z"></path><circle cx="39.237" cy="45.809" r="1.476"></circle><circle cx="39.237" cy="53.404" r="1.474"></circle><circle cx="35.535" cy="57.193" r="1.239"></circle><circle cx="31.698" cy="57.192" r="1.144"></circle><circle cx="27.713" cy="57.192" r="0.764"></circle><circle cx="23.876" cy="57.192" r="0.668"></circle><circle cx="20.038" cy="57.192" r="0.573"></circle><circle cx="16.2" cy="57.192" r="0.479"></circle><circle cx="12.363" cy="57.193" r="0.382"></circle><circle cx="8.422" cy="57.191" r="0.317"></circle><circle cx="4.481" cy="57.193" r="0.28"></circle><circle cx="39.237" cy="57.192" r="1.475"></circle><circle cx="35.535" cy="60.981" r="1.238"></circle><circle cx="31.698" cy="60.981" r="1.144"></circle><path d="M26.949,60.981c0-0.422,0.343-0.762,0.766-0.762c0.42,0,0.762,0.34,0.762,0.762c0,0.424-0.342,0.764-0.762,0.764   C27.292,61.745,26.949,61.405,26.949,60.981z"></path><path d="M23.208,60.983c0-0.369,0.299-0.67,0.668-0.67s0.669,0.299,0.669,0.67c-0.001,0.367-0.3,0.666-0.669,0.666   S23.208,61.351,23.208,60.983z"></path><circle cx="20.038" cy="60.983" r="0.573"></circle><circle cx="16.2" cy="60.981" r="0.479"></circle><circle cx="12.363" cy="60.982" r="0.382"></circle><circle cx="8.422" cy="60.982" r="0.317"></circle><circle cx="4.481" cy="60.982" r="0.28"></circle><circle cx="73.796" cy="65.074" r="0.28"></circle><circle cx="73.796" cy="68.862" r="0.279"></circle><circle cx="39.236" cy="64.923" r="1.238"></circle><circle cx="35.487" cy="64.923" r="1.144"></circle><circle cx="31.503" cy="64.923" r="0.764"></circle><circle cx="27.665" cy="64.923" r="0.669"></circle><circle cx="23.828" cy="64.923" r="0.574"></circle><circle cx="19.989" cy="64.923" r="0.478"></circle><circle cx="16.151" cy="64.923" r="0.383"></circle><circle cx="12.212" cy="64.923" r="0.316"></circle><circle cx="8.271" cy="64.923" r="0.279"></circle><circle cx="39.236" cy="68.711" r="1.239"></circle><circle cx="35.487" cy="68.712" r="1.144"></circle><circle cx="31.503" cy="68.712" r="0.764"></circle><circle cx="27.665" cy="68.712" r="0.669"></circle><circle cx="23.828" cy="68.712" r="0.574"></circle><circle cx="19.989" cy="68.712" r="0.478"></circle><circle cx="16.151" cy="68.712" r="0.383"></circle><circle cx="12.212" cy="68.713" r="0.317"></circle><circle cx="39.237" cy="60.982" r="1.476"></circle></g></g>
</svg>
</g><g opacity="1" transform="rotate(0 100.0172 182.05859999999998)">
<svg width="99.9656" height="27.858" x="100.0172" y="182.05859999999998" version="1.1" preserveAspectRatio="none" viewBox="0.4 -28.1723 101.79999999999998 28.3723">
  <g transform="matrix(1 0 0 1 0 0)" class="a6izo4zJpcolor"><path d="M24.96-3.12Q25.16-2.60 25.16-2.16L25.16-2.16Q25.16-1.12 24.48-0.46Q23.80 0.20 22.92 0.20L22.92 0.20Q22.20 0.20 21.62-0.24Q21.04-0.68 20.72-1.44L20.72-1.44L18.64-6.28L6.72-6.28L4.64-1.40Q4.36-0.64 3.78-0.22Q3.20 0.20 2.52 0.20L2.52 0.20Q1.48 0.20 0.94-0.36Q0.40-0.92 0.40-1.88L0.40-1.88Q0.40-2.24 0.52-2.64L0.52-2.64L10.48-26.56Q10.80-27.36 11.44-27.80Q12.08-28.24 12.88-28.16L12.88-28.16Q13.60-28.16 14.22-27.74Q14.84-27.32 15.12-26.56L15.12-26.56L24.96-3.12ZM12.64-20.24L8.68-10.88L16.68-10.88L12.64-20.24Z M37.56-2.44Q37.56-1.40 36.80-0.70Q36.04 0 35.04 0L35.04 0Q33.96 0 33.26-0.70Q32.56-1.40 32.56-2.44L32.56-2.44L32.56-25.56Q32.56-26.60 33.28-27.30Q34-28 35.12-28L35.12-28Q36.12-28 36.84-27.30Q37.56-26.60 37.56-25.56L37.56-25.56L37.56-2.44Z M71.84-28.04Q72.84-28.04 73.58-27.34Q74.32-26.64 74.32-25.60L74.32-25.60L74.32-2.44Q74.32-1.40 73.64-0.70Q72.96 0 71.84 0L71.84 0Q70.72 0 70.02-0.68Q69.32-1.36 69.32-2.44L69.32-2.44L69.32-18.56L62.72-8.48Q62.32-8 61.80-7.70Q61.28-7.40 60.72-7.44L60.72-7.44Q60.20-7.40 59.68-7.70Q59.16-8 58.76-8.48L58.76-8.48L52.16-18.92L52.16-2.44Q52.16-1.36 51.52-0.68Q50.88 0 49.84 0L49.84 0Q48.84 0 48.20-0.70Q47.56-1.40 47.56-2.44L47.56-2.44L47.56-25.60Q47.56-26.60 48.30-27.32Q49.04-28.04 50.08-28.04L50.08-28.04Q50.68-28.04 51.28-27.74Q51.88-27.44 52.20-26.96L52.20-26.96L60.92-13.56L69.88-26.96Q70.20-27.44 70.74-27.74Q71.28-28.04 71.84-28.04L71.84-28.04Z M99.76-4.68Q100.80-4.68 101.50-4.02Q102.20-3.36 102.20-2.32L102.20-2.32Q102.20-1.32 101.50-0.66Q100.80 0 99.76 0L99.76 0L86.76 0Q85.72 0 85.02-0.70Q84.32-1.40 84.32-2.44L84.32-2.44L84.32-25.56Q84.32-26.60 85.04-27.30Q85.76-28 86.88-28L86.88-28Q87.88-28 88.60-27.30Q89.32-26.60 89.32-25.56L89.32-25.56L89.32-4.68L99.76-4.68Z"></path></g>
</svg>
</g><g opacity="1" transform="rotate(0 0 67.08160000000001)">
<svg width="300" height="47.8954" x="0" y="67.08160000000001" version="1.1" preserveAspectRatio="none" viewBox="3.32 -30 238.52 38.08">
  <g transform="matrix(1 0 0 1 0 0)" class="aD6z1nYkhcolor"><path d="M34.88 0L28.80 0L28.76-16.80L20.52-2.96L17.60-2.96L9.40-16.44L9.40 0L3.32 0L3.32-28L8.68-28L19.16-10.60L29.48-28L34.80-28L34.88 0Z M56.44-21.52L62.44-21.52L52.72 1.32Q51.24 5.04 49.06 6.56Q46.88 8.08 43.80 8.08L43.80 8.08Q42.12 8.08 40.48 7.56Q38.84 7.04 37.80 6.12L37.80 6.12L40.08 1.68Q40.80 2.32 41.74 2.68Q42.68 3.04 43.60 3.04L43.60 3.04Q44.88 3.04 45.68 2.42Q46.48 1.80 47.12 0.36L47.12 0.36L47.20 0.16L37.88-21.52L44.32-21.52L50.36-6.92L56.44-21.52Z M85.24 0L82.76-6L69.76-6L67.28 0L60.64 0L73.12-28L79.52-28L92.04 0L85.24 0ZM71.84-10.92L80.72-10.92L76.28-21.64L71.84-10.92Z M94.52 0L94.52-29.68L100.76-29.68L100.76 0L94.52 0Z M122.84-21.52L128.76-21.52L128.76-3.60Q128.76 2.32 125.68 5.20Q122.60 8.08 116.68 8.08L116.68 8.08Q113.56 8.08 110.76 7.32Q107.96 6.56 106.12 5.12L106.12 5.12L108.60 0.64Q109.96 1.76 112.04 2.42Q114.12 3.08 116.20 3.08L116.20 3.08Q119.44 3.08 120.98 1.62Q122.52 0.16 122.52-2.80L122.52-2.80L122.52-3.72Q120.08-1.04 115.72-1.04L115.72-1.04Q112.76-1.04 110.30-2.34Q107.84-3.64 106.40-6Q104.96-8.36 104.96-11.44L104.96-11.44Q104.96-14.52 106.40-16.88Q107.84-19.24 110.30-20.54Q112.76-21.84 115.72-21.84L115.72-21.84Q120.40-21.84 122.84-18.76L122.84-18.76L122.84-21.52ZM116.96-6.16Q119.44-6.16 121.02-7.62Q122.60-9.08 122.60-11.44L122.60-11.44Q122.60-13.80 121.02-15.26Q119.44-16.72 116.96-16.72L116.96-16.72Q114.48-16.72 112.88-15.26Q111.28-13.80 111.28-11.44L111.28-11.44Q111.28-9.08 112.88-7.62Q114.48-6.16 116.96-6.16L116.96-6.16Z M144.80 0.32Q141.40 0.32 138.70-1.10Q136-2.52 134.48-5.04Q132.96-7.56 132.96-10.76L132.96-10.76Q132.96-13.96 134.48-16.48Q136-19 138.70-20.42Q141.40-21.84 144.80-21.84L144.80-21.84Q148.20-21.84 150.88-20.42Q153.56-19 155.08-16.48Q156.60-13.96 156.60-10.76L156.60-10.76Q156.60-7.56 155.08-5.04Q153.56-2.52 150.88-1.10Q148.20 0.32 144.80 0.32L144.80 0.32ZM144.80-4.80Q147.20-4.80 148.74-6.42Q150.28-8.04 150.28-10.76L150.28-10.76Q150.28-13.48 148.74-15.10Q147.20-16.72 144.80-16.72L144.80-16.72Q142.40-16.72 140.84-15.10Q139.28-13.48 139.28-10.76L139.28-10.76Q139.28-8.04 140.84-6.42Q142.40-4.80 144.80-4.80L144.80-4.80Z M170.40 0.48Q167.08 0.48 163.98-0.42Q160.88-1.32 159-2.76L159-2.76L161.20-7.64Q163-6.32 165.48-5.52Q167.96-4.72 170.44-4.72L170.44-4.72Q173.20-4.72 174.52-5.54Q175.84-6.36 175.84-7.72L175.84-7.72Q175.84-8.72 175.06-9.38Q174.28-10.04 173.06-10.44Q171.84-10.84 169.76-11.32L169.76-11.32Q166.56-12.08 164.52-12.84Q162.48-13.60 161.02-15.28Q159.56-16.96 159.56-19.76L159.56-19.76Q159.56-22.20 160.88-24.18Q162.20-26.16 164.86-27.32Q167.52-28.48 171.36-28.48L171.36-28.48Q174.04-28.48 176.60-27.84Q179.16-27.20 181.08-26L181.08-26L179.08-21.08Q175.20-23.28 171.32-23.28L171.32-23.28Q168.60-23.28 167.30-22.40Q166-21.52 166-20.08L166-20.08Q166-18.64 167.50-17.94Q169-17.24 172.08-16.56L172.08-16.56Q175.28-15.80 177.32-15.04Q179.36-14.28 180.82-12.64Q182.28-11 182.28-8.20L182.28-8.20Q182.28-5.80 180.94-3.82Q179.60-1.84 176.92-0.68Q174.24 0.48 170.40 0.48L170.40 0.48Z M196.52 0.32Q193.12 0.32 190.42-1.10Q187.72-2.52 186.20-5.04Q184.68-7.56 184.68-10.76L184.68-10.76Q184.68-13.96 186.20-16.48Q187.72-19 190.42-20.42Q193.12-21.84 196.52-21.84L196.52-21.84Q199.92-21.84 202.60-20.42Q205.28-19 206.80-16.48Q208.32-13.96 208.32-10.76L208.32-10.76Q208.32-7.56 206.80-5.04Q205.28-2.52 202.60-1.10Q199.92 0.32 196.52 0.32L196.52 0.32ZM196.52-4.80Q198.92-4.80 200.46-6.42Q202-8.04 202-10.76L202-10.76Q202-13.48 200.46-15.10Q198.92-16.72 196.52-16.72L196.52-16.72Q194.12-16.72 192.56-15.10Q191-13.48 191-10.76L191-10.76Q191-8.04 192.56-6.42Q194.12-4.80 196.52-4.80L196.52-4.80Z M219.32-21.96L219.32-21.04L224.84-21.04L224.84-16.24L219.48-16.24L219.48 0L213.24 0L213.24-16.24L209.92-16.24L209.92-21.04L213.24-21.04L213.24-22Q213.24-25.68 215.42-27.84Q217.60-30 221.56-30L221.56-30Q222.96-30 224.22-29.70Q225.48-29.40 226.32-28.84L226.32-28.84L224.68-24.32Q223.60-25.08 222.16-25.08L222.16-25.08Q219.32-25.08 219.32-21.96L219.32-21.96Z M240.16-5.44L241.84-1.04Q240.92-0.36 239.58-0.02Q238.24 0.32 236.76 0.32L236.76 0.32Q232.92 0.32 230.82-1.64Q228.72-3.60 228.72-7.40L228.72-7.40L228.72-16.24L225.40-16.24L225.40-21.04L228.72-21.04L228.72-26.28L234.96-26.28L234.96-21.04L240.32-21.04L240.32-16.24L234.96-16.24L234.96-7.48Q234.96-6.12 235.66-5.38Q236.36-4.64 237.64-4.64L237.64-4.64Q239.12-4.64 240.16-5.44L240.16-5.44Z"></path></g>
</svg>
</g></svg>